<?xml version="1.0" standalone="no"?><!DOCTYPE svg PUBLIC "-//W3C//DTD SVG 1.1//EN" "http://www.w3.org/Graphics/SVG/1.1/DTD/svg11.dtd"><svg t="1607580830419" class="icon" viewBox="0 0 1024 1024" version="1.1" xmlns="http://www.w3.org/2000/svg" p-id="2035" width="128" height="128" xmlns:xlink="http://www.w3.org/1999/xlink"><defs><style type="text/css"></style></defs><path d="M18.2272 809.3696h272.7936V413.0816H18.2272v396.288zM265.0112 237.568H44.2368c-14.336 0-26.0096 11.6736-26.0096 26.0096v97.4848h272.7936v-97.4848c0-14.336-11.6736-26.0096-26.0096-26.0096zM18.2272 984.6784c0 14.336 11.6736 26.0096 26.0096 26.0096h220.7744c14.336 0 26.0096-11.6736 26.0096-26.0096v-78.0288H18.2272v78.0288z m0-103.8336h272.7936v-45.4656H18.2272v45.4656zM858.112 336.6912c-3.6864-13.9264-17.8176-22.1184-31.744-18.6368l-157.0816 41.1648c-13.9264 3.6864-22.1184 17.8176-18.6368 31.744l126.7712 483.9424 207.4624-54.272L858.112 336.6912zM375.6032 984.6784c0 14.336 11.6736 26.0096 26.0096 26.0096h162.4064c14.336 0 26.0096-11.6736 26.0096-26.0096v-831.488H375.6032v831.488zM1016.0128 940.032l-18.0224-69.2224L790.528 925.2864l18.0224 69.2224c3.6864 13.9264 17.8176 22.1184 31.744 18.6368l157.0816-41.1648c14.1312-3.8912 22.3232-18.0224 18.6368-31.9488zM563.8144 10.24H401.408c-14.336 0-26.0096 11.6736-26.0096 26.0096v64.9216H589.824V36.2496c0-14.336-11.4688-26.0096-26.0096-26.0096z" p-id="2036" fill="#2c2c2c"></path></svg>